<svg width="155" height="155" viewBox="0 0 155 155" fill="none" xmlns="http://www.w3.org/2000/svg">
<path d="M7.81818 124V115.818L47.4545 64.9091V64.1818H9.09091V54.1818H61.2727V62.7273L22.7273 113.273V114H62.5455V124H7.81818Z" fill="black"/>
<path d="M12 118.5H149.5" stroke="black" stroke-width="4"/>
<path d="M102.909 91.7273C102.909 96.6364 102.023 100.879 100.25 104.455C98.4773 108.03 96.0455 110.788 92.9545 112.727C89.8636 114.667 86.3333 115.636 82.3636 115.636C78.3939 115.636 74.8636 114.667 71.7727 112.727C68.6818 110.788 66.25 108.03 64.4773 104.455C62.7045 100.879 61.8182 96.6364 61.8182 91.7273C61.8182 86.8182 62.7045 82.5758 64.4773 79C66.25 75.4242 68.6818 72.6667 71.7727 70.7273C74.8636 68.7879 78.3939 67.8182 82.3636 67.8182C86.3333 67.8182 89.8636 68.7879 92.9545 70.7273C96.0455 72.6667 98.4773 75.4242 100.25 79C102.023 82.5758 102.909 86.8182 102.909 91.7273ZM97.4545 91.7273C97.4545 87.697 96.7803 84.2955 95.4318 81.5227C94.0985 78.75 92.2879 76.6515 90 75.2273C87.7273 73.803 85.1818 73.0909 82.3636 73.0909C79.5455 73.0909 76.9924 73.803 74.7045 75.2273C72.4318 76.6515 70.6212 78.75 69.2727 81.5227C67.9394 84.2955 67.2727 87.697 67.2727 91.7273C67.2727 95.7576 67.9394 99.1591 69.2727 101.932C70.6212 104.705 72.4318 106.803 74.7045 108.227C76.9924 109.652 79.5455 110.364 82.3636 110.364C85.1818 110.364 87.7273 109.652 90 108.227C92.2879 106.803 94.0985 104.705 95.4318 101.932C96.7803 99.1591 97.4545 95.7576 97.4545 91.7273ZM149.295 68.4545V115H143.841L118.477 78.4545H118.023V115H112.386V68.4545H117.841L143.295 105.091H143.75V68.4545H149.295Z" fill="black"/>
<rect opacity="0.8" x="84" y="92" width="8" height="8" fill="black"/>
<rect x="84" y="82" width="8" height="8" fill="#1F0CEF"/>
<rect x="73" y="92" width="8" height="8" fill="black"/>
<rect x="73" y="82" width="8" height="8" fill="black"/>
</svg>
